PathFileType	4	(X/Y/Z)	C:\ABL_Data\ExoAging\Piloting\Dec 6 2019\Generated_files\static_2.trc
DataRate	CameraRate	NumFrames	NumMarkers	Units	OrigDataRate	OrigDataStartFrame	OrigNumFrames
100.00	100.00	       9	20	mm	100.00	1	       568
Frame#	Time	R.Acromium			L.Acromium			Sternum			R.ASIS			R.PSIS			S2			L.PSIS			L.ASIS			R.Knee			R.Ankle			L.Knee			L.Ankle			R.MKnee			R.MAnkle			L.MKnee			L.MAnkle			C7			T12			Clav			R.Back			
		X1	Y1	Z1	X2	Y2	Z2	X3	Y3	Z3	X4	Y4	Z4	X5	Y5	Z5	X6	Y6	Z6	X7	Y7	Z7	X8	Y8	Z8	X9	Y9	Z9	X10	Y10	Z10	X11	Y11	Z11	X12	Y12	Z12	X13	Y13	Z13	X14	Y14	Z14	X15	Y15	Z15	X16	Y16	Z16	X17	Y17	Z17	X18	Y18	Z18	X19	Y19	Z19	X20	Y20	Z20	

1	0.000	835.84222	384.41791	1498.58704	841.45404	790.36450	1486.59180	969.69885	572.37091	1317.75464	913.67914	448.01996	1005.56439	729.93677	525.96497	1046.62793	711.78333	579.78845	1022.30219	734.21790	629.46613	1049.99622	919.68195	707.37207	1018.15564	818.82141	382.32950	512.38977	759.11902	378.43243	86.47068	818.87823	764.32434	509.51382	766.66162	775.39557	78.82419	840.60181	494.47418	489.40265	803.76825	458.41013	92.11073	829.48395	651.38934	486.64090	783.70422	685.27045	93.42843	751.46436	573.59991	1554.59668	734.65613	580.54779	1186.66479	915.10956	578.99481	1463.88098	691.48053	456.55899	1393.28235	
2	0.010	835.82385	384.40359	1498.46790	841.50854	790.36011	1486.59863	969.68176	572.39893	1317.72913	913.65063	448.00272	1005.55725	729.92279	525.92291	1046.64099	711.73212	579.81610	1022.29352	734.18695	629.45044	1049.98035	919.67133	707.40271	1018.19434	818.81976	382.30566	512.38135	759.11658	378.42520	86.44028	818.84442	764.34418	509.52856	766.64252	775.43481	78.82936	840.59454	494.50220	489.43106	803.74591	458.41595	92.11626	829.44830	651.36658	486.66153	783.70197	685.27539	93.44337	751.46637	573.50623	1554.57947	734.62170	580.55530	1186.66833	915.22034	578.03790	1463.86462	691.46240	456.47821	1393.31860	
3	0.020	835.89673	384.54239	1498.64502	841.58728	790.37262	1486.64771	969.82153	572.32520	1317.81274	913.67273	448.00024	1005.58801	729.93213	525.93909	1046.64185	711.75946	579.80078	1022.30731	734.18744	629.45703	1049.98828	919.67407	707.41156	1018.18445	818.80292	382.31000	512.40833	759.13635	378.41373	86.43558	818.84473	764.35236	509.52628	766.68170	775.37708	78.81699	840.60052	494.49731	489.43051	803.73956	458.44470	92.18890	829.45300	651.35474	486.63217	783.68866	685.27551	93.42463	751.47760	573.50281	1554.57349	734.61627	580.52722	1186.67212	915.25446	578.01434	1463.83569	691.47821	456.50919	1393.33765	
4	0.030	835.87982	384.44537	1498.56738	841.61523	790.44891	1486.66357	969.84973	572.31165	1317.77161	913.67755	448.02258	1005.59235	729.92505	525.98157	1046.63721	711.72333	579.80347	1022.27332	734.19427	629.47357	1049.95728	919.64478	707.39325	1018.12103	818.81598	382.28061	512.40588	759.13141	378.43069	86.42702	818.84387	764.36108	509.51175	766.69836	775.33618	78.83646	840.58289	494.50873	489.45074	803.72400	458.43262	92.14838	829.51288	651.36377	486.59821	783.72180	685.27228	93.40465	751.48999	573.54272	1554.54590	734.59058	580.56494	1186.62903	915.26434	578.08826	1463.80322	691.46497	456.48425	1393.32947	
5	0.040	835.88147	384.34644	1498.54663	841.65735	790.41370	1486.66614	969.87524	572.32544	1317.75476	913.67908	448.00888	1005.55432	729.91876	525.95801	1046.62659	711.70862	579.82910	1022.27423	734.17511	629.47260	1049.94775	919.64886	707.42200	1018.10553	818.80133	382.26877	512.40771	759.13470	378.45395	86.38068	818.85162	764.34143	509.48685	766.73267	775.34338	78.81361	840.59308	494.48929	489.44867	803.75977	458.43811	92.16962	829.48071	651.38373	486.56943	783.72589	685.26990	93.40691	751.50543	573.59009	1554.57202	734.55597	580.59583	1186.62463	915.19189	579.02246	1463.80713	691.46094	456.50665	1393.35217	
6	0.050	835.90143	384.42050	1498.61731	841.76666	790.43512	1486.73596	969.86298	572.34668	1317.75464	913.67609	448.02286	1005.56219	729.93811	525.92926	1046.62720	711.72809	579.80017	1022.28577	734.19189	629.47650	1049.96765	919.63800	707.39337	1018.09625	818.83014	382.30923	512.38074	759.13477	378.44818	86.44411	818.86755	764.34955	509.51797	766.73737	775.36707	78.78904	840.60901	494.54828	489.44070	803.76440	458.43655	92.15559	829.47571	651.39880	486.63028	783.76056	685.29797	93.40841	751.53387	573.54724	1554.57642	734.52185	580.58789	1186.65173	915.32410	578.07135	1463.76660	691.46082	456.44672	1393.37866	
7	0.060	835.93323	384.35358	1498.55847	841.78729	790.46429	1486.71802	969.86890	572.33459	1317.72900	913.67902	447.98450	1005.55603	729.90704	525.92798	1046.63818	711.72205	579.80090	1022.29108	734.17828	629.46338	1049.99329	919.64911	707.38104	1018.11621	818.79639	382.29932	512.40802	759.11841	378.45398	86.45189	818.89441	764.35101	509.53564	766.70123	775.36243	78.80261	840.61462	494.50046	489.43192	803.73462	458.41840	92.13984	829.51599	651.39685	486.62006	783.75531	685.28662	93.42705	751.54559	573.60144	1554.64417	734.50421	580.60114	1186.66248	915.26617	578.93781	1463.83118	691.43152	456.47006	1393.43005	
8	0.070	835.87518	384.52188	1498.47131	841.85132	790.45599	1486.70972	969.89771	572.32813	1317.75549	913.66534	447.98901	1005.54059	729.87952	525.98236	1046.61902	711.70392	579.80151	1022.29382	734.17139	629.50049	1049.96814	919.65497	707.33051	1018.15088	818.82318	382.32776	512.39508	759.11548	378.45386	86.43806	818.92047	764.33160	509.53799	766.66858	775.43958	78.85696	840.60223	494.49112	489.40649	803.74170	458.42557	92.09731	829.52832	651.33752	486.62650	783.72864	685.27313	93.40392	751.56927	573.62305	1554.63574	734.45514	580.61963	1186.66980	915.40430	577.92566	1463.82373	691.42456	456.47314	1393.42676	
9	0.080	835.95966	384.32144	1498.55310	841.92883	790.47974	1486.77051	969.90717	572.33301	1317.72253	913.68640	447.97101	1005.53479	729.89532	525.92041	1046.59668	711.72614	579.79016	1022.27472	734.17828	629.46234	1049.95007	919.65057	707.36322	1018.12061	818.83337	382.29553	512.39453	759.11835	378.43036	86.42014	818.94165	764.34015	509.54977	766.71820	775.38464	78.81825	840.63184	494.50302	489.45181	803.74066	458.40787	92.12217	829.57568	651.34686	486.57901	783.75677	685.28082	93.43236	751.59332	573.58649	1554.60449	734.45886	580.60956	1186.64697	915.32068	578.93060	1463.84473	691.44220	456.38535	1393.41541	
